<svg xmlns="http://www.w3.org/2000/svg" xmlns:xlink="http://www.w3.org/1999/xlink" width="500" zoomAndPan="magnify" viewBox="0 0 375 374.999991" height="500" preserveAspectRatio="xMidYMid meet" version="1.0"><defs><g/></defs><g fill="rgb(100%, 100%, 100%)" fill-opacity="1"><g transform="translate(41.28838, 322.288544)"><g><path d="M 98.394531 -2.3125 L 48.886719 -60.609375 L 97.929688 -121.066406 C 99.011719 -122.144531 98.238281 -123.378906 96.542969 -123.378906 L 71.40625 -123.378906 C 71.097656 -123.378906 70.171875 -123.070312 70.015625 -122.914062 L 23.597656 -65.851562 L 23.597656 -121.988281 C 23.597656 -122.605469 22.980469 -123.378906 22.054688 -123.378906 L 1.695312 -123.378906 C 0.769531 -123.378906 0 -122.605469 0 -121.988281 L 0 -7.558594 C 0 -7.558594 30.074219 -41.640625 33.15625 -44.878906 L 69.089844 -0.460938 C 69.246094 -0.308594 70.171875 0 70.480469 0 L 97.007812 0 C 98.546875 0 99.320312 -1.078125 98.394531 -2.3125 Z M 98.394531 -2.3125 "/></g></g></g><g fill="rgb(100%, 100%, 100%)" fill-opacity="1"><g transform="translate(145.077623, 322.288544)"><g><path d="M 10.332031 -102.25 L 53.824219 -102.25 L 53.824219 -121.988281 C 53.824219 -122.605469 53.359375 -123.378906 52.28125 -123.378906 L 10.332031 -123.378906 C 9.253906 -123.378906 8.636719 -122.605469 8.636719 -121.988281 L 8.636719 -103.636719 C 8.636719 -103.019531 9.253906 -102.25 10.332031 -102.25 Z M 30.382812 -81.121094 L 30.382812 -36.398438 C 30.382812 -36.398438 30.382812 -22.824219 16.964844 -22.824219 L 1.695312 -22.824219 C 0.769531 -22.824219 0 -22.207031 0 -21.4375 L 0 -1.386719 C 0 -0.769531 0.769531 0 1.695312 0 L 16.964844 0 C 16.964844 0 53.824219 0 53.824219 -36.398438 L 53.824219 -81.121094 Z M 30.382812 -81.121094 "/></g></g></g><g fill="rgb(100%, 100%, 100%)" fill-opacity="1"><g transform="translate(167.3556, 159.653851)"><g><path d="M 0.75 -2.9375 L -24.09375 -9.234375 L -23.328125 -12.296875 L -10.0625 -8.9375 L -20.34375 -24.015625 L -19.421875 -27.671875 L -11.125 -15.671875 L 5.46875 -21.53125 L 4.53125 -17.859375 L -9.28125 -12.9375 L -5.765625 -7.84375 L 1.515625 -6 Z M 0.75 -2.9375 "/></g></g></g><g fill="rgb(100%, 100%, 100%)" fill-opacity="1"><g transform="translate(173.127408, 137.027053)"><g><path d="M 1.640625 -2.546875 L -19.9375 -16.359375 L -12.390625 -28.15625 L -7.359375 -29.234375 L -0.484375 -24.828125 L 0.640625 -19.8125 L 0.59375 -19.734375 L 11.625 -18.15625 L 9.734375 -15.203125 L -1.28125 -16.828125 L -5.203125 -10.671875 L 3.34375 -5.203125 Z M -7.578125 -12.203125 L -2.5 -20.140625 L -3.109375 -22.734375 L -8.171875 -25.984375 L -10.796875 -25.4375 L -15.875 -17.5 Z M -7.578125 -12.203125 "/></g></g></g><g fill="rgb(100%, 100%, 100%)" fill-opacity="1"><g transform="translate(187.073527, 116.747247)"><g><path d="M 1.609375 -1.4375 L -0.34375 -3.609375 L 1.96875 -5.703125 L -11.265625 -20.40625 L -13.578125 -18.3125 L -15.53125 -20.484375 L -8.53125 -26.796875 L -6.578125 -24.625 L -8.90625 -22.53125 L 4.328125 -7.828125 L 6.65625 -9.921875 L 8.609375 -7.75 Z M 1.609375 -1.4375 "/></g></g></g><g fill="rgb(100%, 100%, 100%)" fill-opacity="1"><g transform="translate(197.94406, 106.380263)"><g><path d="M 2.734375 -1.375 L 1.421875 -3.984375 L 12.671875 -9.671875 L 13.5 -12.234375 L 11.1875 -16.796875 L 8.640625 -17.65625 L -0.203125 -13.1875 L -5.046875 -14.78125 L -7.984375 -20.578125 L -6.40625 -25.46875 L 5.78125 -31.625 L 7.09375 -29.015625 L -3.796875 -23.515625 L -4.65625 -20.9375 L -2.703125 -17.15625 L -0.15625 -16.3125 L 8.6875 -20.765625 L 13.546875 -19.15625 L 16.859375 -12.609375 L 15.28125 -7.703125 Z M 2.734375 -1.375 "/></g></g></g><g fill="rgb(100%, 100%, 100%)" fill-opacity="1"><g transform="translate(218.728808, 95.773049)"><g><path d="M 3 -0.421875 L -0.515625 -25.8125 L 2.609375 -26.234375 L 4.09375 -15.578125 L 16.671875 -17.328125 L 15.1875 -27.984375 L 18.328125 -28.40625 L 21.84375 -3.015625 L 18.703125 -2.59375 L 17.046875 -14.546875 L 4.46875 -12.796875 L 6.125 -0.84375 Z M 3 -0.421875 "/></g></g></g><g fill="rgb(100%, 100%, 100%)" fill-opacity="1"><g transform="translate(243.822398, 92.357344)"><g><path d="M 2.96875 0.609375 L 8.171875 -24.484375 L 12.375 -23.609375 L 19.40625 -1.078125 L 23.59375 -21.28125 L 26.6875 -20.640625 L 21.484375 4.453125 L 17.8125 3.6875 L 10.921875 -18.40625 L 10.171875 -18.5625 L 6.0625 1.25 Z M 2.96875 0.609375 "/></g></g></g><g fill="rgb(100%, 100%, 100%)" fill-opacity="1"><g transform="translate(268.602249, 97.714035)"><g><path d="M 0.421875 0.25 L 20.9375 -17.359375 L 25.15625 -14.859375 L 19.515625 11.59375 L 16.6875 9.90625 L 18.203125 3.046875 L 8.546875 -2.671875 L 3.296875 1.953125 Z M 10.78125 -4.59375 L 18.859375 0.203125 L 21.859375 -13.328125 L 21.171875 -13.734375 Z M 10.78125 -4.59375 "/></g></g></g><g fill="rgb(100%, 100%, 100%)" fill-opacity="1"><g transform="translate(289.283031, 111.243418)"><g><path d="M 1.578125 1.515625 L 4.4375 -1.4375 L 6.640625 0.703125 L 3.78125 3.65625 Z M 1.578125 1.515625 "/></g></g></g><g fill="rgb(100%, 100%, 100%)" fill-opacity="1"><g transform="translate(302.992752, 126.061808)"><g><path d="M 2.3125 4.84375 L 4.046875 -0.015625 L 9.359375 -2.53125 L 10.71875 0.328125 L 6.390625 2.390625 L 5.484375 4.953125 L 7.703125 9.625 L 10.265625 10.515625 L 29.125 1.53125 L 30.484375 4.390625 L 10.640625 13.828125 L 5.765625 12.109375 Z M 2.3125 4.84375 "/></g></g></g><g fill="rgb(100%, 100%, 100%)" fill-opacity="1"><g transform="translate(312.169736, 144.660619)"><g><path d="M 0.390625 3 L 25.796875 -0.34375 L 26.21875 2.796875 L 15.5625 4.203125 L 17.21875 16.78125 L 27.875 15.375 L 28.28125 18.515625 L 2.875 21.859375 L 2.46875 18.71875 L 14.421875 17.140625 L 12.765625 4.5625 L 0.8125 6.140625 Z M 0.390625 3 "/></g></g></g><g fill="rgb(100%, 100%, 100%)" fill-opacity="1"><g transform="translate(315.269077, 169.887241)"><g><path d="M -0.09375 0.46875 L 23.28125 14.0625 L 22.3125 18.875 L -4.53125 22.25 L -3.875 19.015625 L 3.09375 18.1875 L 5.34375 7.1875 L -0.765625 3.75 Z M 7.890625 8.671875 L 6.015625 17.875 L 19.78125 16.28125 L 19.9375 15.484375 Z M 7.890625 8.671875 "/></g></g></g><g fill="rgb(100%, 100%, 100%)" fill-opacity="1"><g transform="translate(310.263903, 193.185139)"><g><path d="M -1.484375 2.640625 L 20.875 15.171875 L 14.265625 26.96875 L 9.3125 28.328125 L 1.625 24.03125 L 0.21875 19.09375 L 5.28125 10.046875 L -3.03125 5.390625 Z M 7.734375 11.421875 L 3.375 19.21875 L 4.125 21.796875 L 9.90625 25.046875 L 12.53125 24.359375 L 16.875 16.546875 Z M 7.734375 11.421875 "/></g></g></g><g fill="rgb(100%, 100%, 100%)" fill-opacity="1"><g transform="translate(299.602705, 212.308623)"><g><path d="M -0.359375 0.328125 L 10.78125 24.984375 L 7.1875 28.328125 L -16.609375 15.484375 L -14.203125 13.234375 L -8.03125 16.609375 L 0.171875 8.953125 L -2.796875 2.609375 Z M 1.390625 11.640625 L -5.484375 18.046875 L 6.640625 24.734375 L 7.234375 24.171875 Z M 1.390625 11.640625 "/></g></g></g><g fill="rgb(100%, 100%, 100%)" fill-opacity="1"><g transform="translate(281.81725, 228.334267)"><g><path d="M -7.25 3.515625 L 2.65625 23.9375 L 9.5 20.625 L 10.78125 23.265625 L -5.765625 31.28125 L -7.046875 28.640625 L -0.203125 25.328125 L -10.109375 4.90625 Z M -7.25 3.515625 "/></g></g></g><g fill="rgb(100%, 100%, 100%)" fill-opacity="1"><g transform="translate(263.642289, 237.191516)"><g><path d="M -2.984375 0.484375 L 1.125 25.78125 L -15.546875 28.5 L -16.015625 25.609375 L -2.46875 23.40625 L -3.71875 15.734375 L -15.828125 17.6875 L -16.28125 14.828125 L -4.171875 12.875 L -5.640625 3.890625 L -19.1875 6.09375 L -19.65625 3.203125 Z M -2.984375 0.484375 "/></g></g></g></svg>